<?xml version="1.0" encoding="UTF-8"?>
<svg version="1.1" xmlns="http://www.w3.org/2000/svg" width="300" height="300">
<path d="M0 0 C99 0 198 0 300 0 C300 99 300 198 300 300 C201 300 102 300 0 300 C0 201 0 102 0 0 Z " fill="#FEFEFE" transform="translate(0,0)"/>
<path d="M0 0 C99 0 198 0 300 0 C300 99 300 198 300 300 C201 300 102 300 0 300 C0 201 0 102 0 0 Z M34 32 C34 109.22 34 186.44 34 266 C110.89 266 187.78 266 267 266 C267 188.78 267 111.56 267 32 C190.11 32 113.22 32 34 32 Z " fill="#FEFEFE" transform="translate(0,0)"/>
<path d="M0 0 C76.89 0 153.78 0 233 0 C233 77.22 233 154.44 233 234 C156.11 234 79.22 234 0 234 C0 156.78 0 79.56 0 0 Z M20 21 C20 67.86 20 114.72 20 163 C83.69 163 147.38 163 213 163 C213 116.14 213 69.28 213 21 C149.31 21 85.62 21 20 21 Z " fill="#BFBFBF" transform="translate(34,32)"/>
<path d="M0 0 C3.24277949 2.66673967 4.37570507 5.83881085 5.93359375 9.67578125 C6.20769073 10.34517227 6.48178772 11.01456329 6.76419067 11.70423889 C7.66267792 13.90406677 8.55016598 16.10815238 9.4375 18.3125 C10.05988289 19.84284775 10.68285515 21.37295593 11.30639648 22.90283203 C13.21617662 27.59711343 15.11044439 32.29754638 17 37 C17.29249634 37.72777649 17.58499268 38.45555298 17.88635254 39.2053833 C20.26770771 45.13377899 22.64409047 51.06411794 25.00366211 57.0012207 C25.45749268 58.14292725 25.91132324 59.28463379 26.37890625 60.4609375 C26.81090332 61.54858398 27.24290039 62.63623047 27.68798828 63.75683594 C29.42597347 68.05296457 31.25205826 72.31002199 33.09741211 76.56103516 C34 79 34 79 34 82 C-14.84 82 -63.68 82 -114 82 C-112.28526044 77.71315109 -110.37793564 73.62671091 -108.3046875 69.51171875 C-107.77622726 68.4569207 -107.77622726 68.4569207 -107.23709106 67.3808136 C-106.11827841 65.148758 -104.99668307 62.91811426 -103.875 60.6875 C-103.11309672 59.16871235 -102.35137599 57.64983311 -101.58984375 56.13085938 C-99.72867426 52.41950921 -97.86500889 48.7094222 -96 45 C-93 45 -93 45 -91.2824707 46.37695312 C-90.66976318 47.00537109 -90.05705566 47.63378906 -89.42578125 48.28125 C-88.75869141 48.95800781 -88.09160156 49.63476562 -87.40429688 50.33203125 C-86.71400391 51.04746094 -86.02371094 51.76289063 -85.3125 52.5 C-84.61060547 53.21542969 -83.90871094 53.93085938 -83.18554688 54.66796875 C-81.45013639 56.43879577 -79.7220927 58.21623456 -78 60 C-72.59279582 52.65722069 -67.90550286 44.97785784 -63.26464844 37.13378906 C-60.62081142 32.66983172 -57.93118681 28.28135161 -55 24 C-51.43474072 25.50888492 -49.20707802 27.58623856 -46.5234375 30.3515625 C-45.688125 31.20234375 -44.8528125 32.053125 -43.9921875 32.9296875 C-43.12851563 33.81914063 -42.26484375 34.70859375 -41.375 35.625 C-39.65826847 37.39252241 -37.93714292 39.15579134 -36.2109375 40.9140625 C-35.45087402 41.6973291 -34.69081055 42.4805957 -33.90771484 43.28759766 C-32.17919728 45.22266183 -32.17919728 45.22266183 -30 45 C-28.51487068 43.14600254 -28.51487068 43.14600254 -27.015625 40.70703125 C-26.41637207 39.77584473 -25.81711914 38.8446582 -25.19970703 37.88525391 C-24.55630371 36.87124512 -23.91290039 35.85723633 -23.25 34.8125 C-21.89940783 32.71161547 -20.54782102 30.61137008 -19.1953125 28.51171875 C-18.5034082 27.4345459 -17.81150391 26.35737305 -17.09863281 25.24755859 C-13.82091996 20.17541616 -10.47784105 15.14768222 -7.125 10.125 C-6.52461914 9.22241455 -5.92423828 8.3198291 -5.30566406 7.38989258 C-4.75362305 6.56255615 -4.20158203 5.73521973 -3.6328125 4.8828125 C-3.14699707 4.15465332 -2.66118164 3.42649414 -2.16064453 2.67626953 C-1 1 -1 1 0 0 Z " fill="#C0C0C0" transform="translate(191,93)"/>
<path d="M0 0 C4.59861915 2.32917074 7.26325281 5.50236105 8.9921875 10.3515625 C9.83691509 16.15906467 8.41867407 20.67815922 4.9921875 25.3515625 C1.56554707 28.52076103 -1.95612535 29.60298676 -6.5703125 29.8515625 C-12.20656361 29.57358413 -15.31484239 26.95302071 -19.3203125 23.1640625 C-21.64689243 19.28642928 -22.19887559 15.84950596 -22.0078125 11.3515625 C-20.28004102 6.06661444 -17.33634561 3.57493822 -13.0078125 0.3515625 C-9.05679243 -1.62394753 -4.1503945 -1.34039978 0 0 Z " fill="#C0C0C0" transform="translate(106.0078125,84.6484375)"/>
</svg>
